<?xml version="1.0" encoding="utf-8"?>
<!-- Generator: Adobe Illustrator 16.2.0, SVG Export Plug-In . SVG Version: 6.00 Build 0)  -->
<!DOCTYPE svg PUBLIC "-//W3C//DTD SVG 1.1//EN" "http://www.w3.org/Graphics/SVG/1.1/DTD/svg11.dtd">
<svg version="1.1" id="Layer_1" xmlns="http://www.w3.org/2000/svg" xmlns:xlink="http://www.w3.org/1999/xlink" x="0px" y="0px"
	 width="50px" height="50px" viewBox="0 0 50 50" enable-background="new 0 0 50 50" xml:space="preserve">
<g>
	<g>
		<polygon points="18.625,37.83 15.292,41.164 31.958,41.164 28.624,37.83 		"/>
	</g>
	<g>
		<path d="M45.708,17.586c0-4.824-3.926-8.75-8.75-8.75c-3.645,0-6.771,2.242-8.082,5.417H6.958V35.92h33.333V25.67
			C43.466,24.355,45.708,21.23,45.708,17.586z M36.958,25.503c-4.365,0-7.916-3.551-7.916-7.917c0-4.364,3.551-7.917,7.916-7.917
			s7.918,3.553,7.918,7.917C44.876,21.952,41.323,25.503,36.958,25.503z"/>
	</g>
	<g>
		<polygon points="40.618,12.293 36.136,18.605 32.788,15.815 30.915,18.065 36.692,22.88 43.001,13.987 		"/>
	</g>
</g>
</svg>
