<?xml version="1.0" encoding="utf-8"?>
<!-- Generator: Adobe Illustrator 16.2.0, SVG Export Plug-In . SVG Version: 6.00 Build 0)  -->
<!DOCTYPE svg PUBLIC "-//W3C//DTD SVG 1.1//EN" "http://www.w3.org/Graphics/SVG/1.1/DTD/svg11.dtd">
<svg version="1.1" id="Layer_1" xmlns="http://www.w3.org/2000/svg" xmlns:xlink="http://www.w3.org/1999/xlink" x="0px" y="0px"
	 width="50px" height="50px" viewBox="0 0 50 50" enable-background="new 0 0 50 50" xml:space="preserve">
<g>
	<g>
		<polygon points="15.547,40.734 11.459,44.822 31.897,44.822 27.81,40.734 		"/>
	</g>
	<g>
		<path d="M48.762,15.907c0-5.916-4.815-10.73-10.731-10.73c-4.472,0-8.304,2.75-9.913,6.644H1.238v26.572h40.88V25.82
			C46.01,24.209,48.762,20.376,48.762,15.907z M38.03,25.616c-5.354,0-9.709-4.355-9.709-9.709c0-5.353,4.355-9.708,9.709-9.708
			c5.353,0,9.71,4.356,9.71,9.708C47.74,21.261,43.383,25.616,38.03,25.616z"/>
	</g>
	<g>
		<polygon points="42.519,9.416 37.021,17.157 32.917,13.735 30.619,16.494 37.702,22.4 45.442,11.493 		"/>
	</g>
</g>
</svg>
