<?xml version="1.0" encoding="utf-8"?>
<!-- Generator: Adobe Illustrator 16.2.0, SVG Export Plug-In . SVG Version: 6.00 Build 0)  -->
<!DOCTYPE svg PUBLIC "-//W3C//DTD SVG 1.1//EN" "http://www.w3.org/Graphics/SVG/1.1/DTD/svg11.dtd">
<svg version="1.1" id="Layer_1" xmlns="http://www.w3.org/2000/svg" xmlns:xlink="http://www.w3.org/1999/xlink" x="0px" y="0px"
	 width="50px" height="50px" viewBox="0 0 50 50" enable-background="new 0 0 50 50" xml:space="preserve">
<circle fill="#FFFFFF" cx="25" cy="25" r="24"/>
<rect x="13" y="13.75" fill="#FFFFFF" width="24.25" height="22"/>
<path d="M25,5C13.973,5,5,13.973,5,25c0,11.027,8.973,20,20,20c11.029,0,20-8.973,20-20C45,13.973,36.029,5,25,5z M32.316,27.637
	c0.711,0.713,0.711,1.867,0,2.579l-2.102,2.101c-0.355,0.355-0.822,0.533-1.291,0.533c-0.467,0-0.934-0.178-1.287-0.533
	l-2.639-2.637l-2.638,2.637c-0.354,0.355-0.821,0.533-1.289,0.533c-0.467,0-0.934-0.178-1.29-0.533l-2.099-2.101
	c-0.713-0.712-0.713-1.866,0-2.579L20.318,25l-2.635-2.636c-0.713-0.714-0.713-1.868,0-2.58l2.099-2.101
	c0.713-0.713,1.868-0.713,2.579,0l2.638,2.637l2.638-2.637c0.713-0.713,1.866-0.713,2.579,0l2.101,2.101
	c0.711,0.712,0.711,1.866,0,2.58L29.68,25L32.316,27.637z"/>
</svg>
