<?xml version="1.0" encoding="utf-8"?>
<!-- Generator: Adobe Illustrator 16.2.0, SVG Export Plug-In . SVG Version: 6.00 Build 0)  -->
<!DOCTYPE svg PUBLIC "-//W3C//DTD SVG 1.1//EN" "http://www.w3.org/Graphics/SVG/1.1/DTD/svg11.dtd">
<svg version="1.1" id="Layer_1" xmlns="http://www.w3.org/2000/svg" xmlns:xlink="http://www.w3.org/1999/xlink" x="0px" y="0px"
	 width="50px" height="50px" viewBox="0 0 50 50" enable-background="new 0 0 50 50" xml:space="preserve">
<path fill="#FFFFFF" d="M33.348,28.107L9.494,48.733c-0.789,0.681-1.781,1.036-2.786,1.036c-0.602,0-1.205-0.129-1.771-0.384
	c-1.517-0.691-2.487-2.208-2.487-3.875V4.26c0-1.667,0.972-3.18,2.487-3.874c1.516-0.693,3.296-0.439,4.557,0.652l23.854,20.623
	c0.936,0.809,1.474,1.984,1.474,3.223C34.821,26.124,34.283,27.297,33.348,28.107z M46.568,22.734L22.717,2.111
	c-1.188-1.028-2.98-0.896-4.006,0.29c-1.025,1.187-0.896,2.981,0.291,4.004l21.37,18.479L19.003,43.366
	c-1.185,1.026-1.315,2.816-0.291,4.003c0.563,0.649,1.353,0.98,2.15,0.98c0.657,0,1.319-0.227,1.856-0.689l23.85-20.626
	c0.623-0.542,0.981-1.325,0.981-2.15C47.55,24.059,47.193,23.275,46.568,22.734z"/>
</svg>
